<svg id="natureMarker" data-name="Layer 1" xmlns="http://www.w3.org/2000/svg" viewBox="0 0 17.83 27.92"><defs><style>.cls-1{fill:#fad2c3;}.cls-2{fill:#fff7ec;}.cls-3{fill:#fabb7c;}</style></defs><circle class="cls-1" cx="8.92" cy="8.92" r="8.92"/><path class="cls-1" d="M8.92,11.46H17.2L13.06,21l-2.54,5.84a1.75,1.75,0,0,1-3.21,0L4.78,21,.64,11.46Z"/><path class="cls-2" d="M8.92,15.24a6.93,6.93,0,1,1,6.92-6.93A6.94,6.94,0,0,1,8.92,15.24Z"/><path class="cls-3" d="M8.92,1.89A6.43,6.43,0,1,1,2.49,8.31,6.43,6.43,0,0,1,8.92,1.89m0-1a7.43,7.43,0,1,0,7.42,7.42A7.43,7.43,0,0,0,8.92.89Z"/><path d="M15.41,8.32A6.5,6.5,0,1,1,9,1.81,6.5,6.5,0,0,1,15.41,8.32ZM13.3,12c.2,0,.36.05.5-.14a5.93,5.93,0,0,0,1.13-4.24A6.05,6.05,0,1,0,4,11.87a.34.34,0,0,0,.44.15V10.41l-.24.21-.31-.31c.15-.14.27-.28.4-.41s.2-.21.13-.48l-.22.2-.31-.3a5.42,5.42,0,0,1,.4-.42.42.42,0,0,0,.15-.49l-.25.21a1.14,1.14,0,0,1-.16-.14l-.14-.16c.58-.68.58-.68.54-.9l-.24.21-.32-.29c.23-.25.44-.48.66-.69a.31.31,0,0,1,.31,0c.24.18.46.4.69.6l-.07.06-.33.33L5,7.4c-.13.5.35.62.49.91l-.28.32-.27-.24c-.05.5.43.62.58.95l-.29.28L5,9.4a.42.42,0,0,0,.16.51c.14.12.27.27.36.36l-.27.35L5,10.4V12c.56.07.56.07.79-.38.74-1.49,1.48-3,2.23-4.47A.4.4,0,0,1,8.24,7c.07,0,.18.12.22.22.19.38.35.78.52,1.17,0,.09.09.18.15.3.24-.52.46-1,.69-1.48,0-.09.16-.22.23-.21a.44.44,0,0,1,.26.21c.23.45.44.9.66,1.36.54,1.1,1.07,2.21,1.61,3.31a1,1,0,0,0,.19.22l.06,0V10.42l-.26.2-.28-.27c.15-.35.63-.46.54-.95l-.25.21-.29-.27c.14-.34.64-.45.54-.94l-.26.22-.29-.27c.14-.35.63-.46.55-.95l-.25.22-.33-.28c.23-.24.43-.48.66-.68a.34.34,0,0,1,.31,0c.24.19.47.4.72.62l-.37.35L13.3,7.4c-.09.5.42.6.56.95l-.29.27-.27-.24c-.07.51.44.62.58,1l-.29.27-.28-.23c-.11.51.42.61.57,1l-.3.27-.28-.25ZM8.08,12h4.08L10.07,7.7Zm-2,0c.49,0,.91,0,1.34,0a.27.27,0,0,0,.3-.19C8,11,8.42,10.22,8.8,9.39a.33.33,0,0,0,0-.21c-.2-.48-.42-1-.65-1.47Zm3,2.08a1.29,1.29,0,0,0-.79-.6c-.41-.14-.85-.23-1.27-.37s-.76-.22-.89-.63H4.58a5.92,5.92,0,0,0,3.63,1.78A2.48,2.48,0,0,0,9,14.13Zm4.26-1.53-.05-.08H9c.87.44,1.93.41,2.68,1.22Zm-2.09,1.29,0-.11-1.09-.41c-.38-.13-.78-.21-1.15-.36a2,2,0,0,1-.47-.41s-.08-.09-.13-.09H6.63v.08c.31.09.62.17.92.28a9.75,9.75,0,0,1,1.39.54.7.7,0,0,1,.41.93A4.33,4.33,0,0,0,11.16,13.89Z"/><path d="M10.08,4.8a10.15,10.15,0,0,1-1.15-.36.64.64,0,0,1-.32-.77.71.71,0,0,1,.65-.54A1.2,1.2,0,0,0,9.63,3a1,1,0,0,1,1,0,.85.85,0,0,0,.32.09.71.71,0,0,1,.69.66.72.72,0,0,1-.56.76l-.61.17ZM9.32,3.58c-.18,0-.3.11-.28.28s.13.25.31.25a.68.68,0,0,1,.38.07.52.52,0,0,0,.74,0c.08-.06.22,0,.33-.08a.67.67,0,0,0,.3-.1.26.26,0,0,0,0-.27.4.4,0,0,0-.29-.12.39.39,0,0,1-.4-.11.44.44,0,0,0-.59-.05C9.67,3.58,9.53,3.69,9.32,3.58Z"/><path d="M6.49,6.24a12.2,12.2,0,0,1-1.17-.37A.63.63,0,0,1,5,5.13a.75.75,0,0,1,.64-.56,2.44,2.44,0,0,0,.44-.13,1.72,1.72,0,0,1,.21-.07,2.83,2.83,0,0,1,1.45.38A.56.56,0,0,1,8,5.43a.63.63,0,0,1-.5.53,2.23,2.23,0,0,0-.71.21A.88.88,0,0,1,6.49,6.24Zm.86-.65c.07-.11.19-.21.2-.32A.23.23,0,0,0,7.25,5a.42.42,0,0,1-.45-.12.48.48,0,0,0-.66,0A1.2,1.2,0,0,1,5.79,5a.72.72,0,0,0-.3.11.29.29,0,0,0,0,.27.73.73,0,0,0,.3.12,1.34,1.34,0,0,1,.37.11.49.49,0,0,0,.61.05C6.92,5.56,7.07,5.43,7.35,5.59Z"/><path d="M9.9,6.37l-.29.16c-.12.09-.24.12-.32,0a.34.34,0,0,1,0-.31A.85.85,0,0,1,9.67,6a.31.31,0,0,0,.2-.24,1.3,1.3,0,0,1,.22-.46.31.31,0,0,1,.3,0s0,.19,0,.28-.1.39-.11.59S10.19,6.41,9.9,6.37Z"/><path d="M11.56,5.89c0,.24,0,.57-.13.7a1.43,1.43,0,0,1-.8.28c-.14,0-.18-.28,0-.37a1.23,1.23,0,0,0,.56-.67c0-.07.18-.12.28-.13s.12.11.18.17Z"/></svg>